<?xml version="1.0" encoding="UTF-8" standalone="no"?>
<!DOCTYPE svg PUBLIC "-//W3C//DTD SVG 1.1//EN" "http://www.w3.org/Graphics/SVG/1.1/DTD/svg11.dtd">
<svg width="100%" height="100%" viewBox="0 0 680 200" version="1.1" xmlns="http://www.w3.org/2000/svg" xmlns:xlink="http://www.w3.org/1999/xlink" xml:space="preserve" xmlns:serif="http://www.serif.com/" style="fill-rule:evenodd;clip-rule:evenodd;stroke-linecap:round;stroke-linejoin:round;stroke-miterlimit:1.5;">
    <g transform="matrix(1.40146,0,0,1.47385,6.46932,5.6734)">
        <g transform="matrix(0.117187,0,0,0.117025,4.0005,4.08345)">
            <circle cx="512" cy="512" r="512" style="fill:none;stroke:white;stroke-width:95.65px;"/>
        </g>
        <g transform="matrix(0.186681,0,0,0.186681,-31.5474,-31.4751)">
            <path d="M285.918,284.581L405.311,511.635L284.241,738.689" style="fill:none;stroke:white;stroke-width:57.69px;stroke-linecap:butt;"/>
        </g>
        <g transform="matrix(0.186681,0,0,0.186681,-31.5474,-31.4751)">
            <path d="M738.082,284.581L618.689,511.635L738.689,738.689" style="fill:none;stroke:white;stroke-width:57.69px;stroke-linecap:butt;"/>
        </g>
        <g transform="matrix(0.0808121,0,0,0.149,22.6577,-12.2077)">
            <path d="M265.541,511.331L758.459,511.331" style="fill:none;stroke:white;stroke-width:85.64px;stroke-linecap:butt;"/>
        </g>
    </g>
    <g transform="matrix(7.25673,0,0,7.25673,-1467.69,-456.484)">
        <g transform="matrix(24,0,0,24,236.325,85.9368)">
            <path d="M0.169,-0.7L0.56,-0.7L0.546,-0.62L0.24,-0.62L0.206,-0.42L0.493,-0.42L0.479,-0.341L0.192,-0.341L0.147,-0.08L0.454,-0.08L0.441,-0L0.051,-0L0.169,-0.7Z" style="fill:white;fill-rule:nonzero;"/>
        </g>
        <g transform="matrix(24,0,0,24,249.141,85.9368)">
            <path d="M0.045,-0.23C0.052,-0.275 0.067,-0.316 0.092,-0.353C0.117,-0.389 0.148,-0.418 0.185,-0.439C0.222,-0.46 0.263,-0.47 0.306,-0.47C0.341,-0.47 0.37,-0.461 0.393,-0.443C0.416,-0.425 0.432,-0.402 0.443,-0.373L0.512,-0.78L0.593,-0.78L0.458,-0L0.381,-0L0.393,-0.075C0.373,-0.05 0.349,-0.029 0.322,-0.014C0.294,0.001 0.263,0.009 0.23,0.009C0.187,0.01 0.15,-0.001 0.121,-0.023C0.091,-0.045 0.069,-0.074 0.056,-0.111C0.043,-0.147 0.039,-0.187 0.045,-0.23ZM0.125,-0.23C0.12,-0.2 0.122,-0.172 0.131,-0.148C0.139,-0.123 0.153,-0.103 0.173,-0.088C0.192,-0.073 0.217,-0.066 0.246,-0.066C0.271,-0.066 0.296,-0.073 0.32,-0.086C0.344,-0.099 0.365,-0.118 0.382,-0.141C0.399,-0.164 0.411,-0.19 0.417,-0.219L0.42,-0.234C0.423,-0.263 0.421,-0.289 0.413,-0.313C0.404,-0.337 0.391,-0.357 0.374,-0.372C0.356,-0.387 0.334,-0.394 0.308,-0.395C0.278,-0.396 0.25,-0.389 0.224,-0.374C0.198,-0.359 0.176,-0.339 0.159,-0.315C0.142,-0.29 0.13,-0.261 0.125,-0.23Z" style="fill:white;fill-rule:nonzero;"/>
        </g>
        <g transform="matrix(24,0,0,24,262.413,85.9368)">
            <path d="M0.156,-0.65C0.156,-0.665 0.161,-0.678 0.172,-0.689C0.183,-0.7 0.195,-0.705 0.21,-0.705C0.225,-0.705 0.238,-0.7 0.249,-0.689C0.26,-0.678 0.265,-0.665 0.265,-0.65C0.265,-0.635 0.26,-0.623 0.249,-0.612C0.238,-0.601 0.225,-0.596 0.21,-0.596C0.195,-0.596 0.183,-0.601 0.172,-0.612C0.161,-0.623 0.156,-0.635 0.156,-0.65ZM0.137,-0.46L0.218,-0.46L0.14,-0L0.061,-0L0.137,-0.46Z" style="fill:white;fill-rule:nonzero;"/>
        </g>
        <g transform="matrix(24,0,0,24,268.461,85.9368)">
            <path d="M0.058,-0.46L0.128,-0.46L0.155,-0.62L0.236,-0.62L0.208,-0.46L0.282,-0.46L0.269,-0.385L0.195,-0.385L0.128,-0L0.051,-0L0.116,-0.385L0.044,-0.385L0.058,-0.46Z" style="fill:white;fill-rule:nonzero;"/>
        </g>
        <g transform="matrix(24,0,0,24,274.053,85.9368)">
            <path d="M0.052,-0.23C0.058,-0.274 0.074,-0.314 0.099,-0.351C0.124,-0.387 0.155,-0.416 0.193,-0.438C0.231,-0.459 0.273,-0.47 0.318,-0.47C0.362,-0.47 0.4,-0.459 0.432,-0.437C0.463,-0.414 0.487,-0.385 0.502,-0.349C0.517,-0.312 0.521,-0.273 0.515,-0.23C0.509,-0.186 0.494,-0.146 0.469,-0.11C0.444,-0.073 0.412,-0.044 0.374,-0.023C0.336,-0.002 0.294,0.009 0.249,0.009C0.204,0.009 0.166,-0.002 0.135,-0.024C0.104,-0.046 0.081,-0.075 0.066,-0.112C0.051,-0.148 0.046,-0.187 0.052,-0.23ZM0.131,-0.23C0.127,-0.202 0.129,-0.175 0.138,-0.151C0.146,-0.126 0.16,-0.105 0.18,-0.09C0.2,-0.074 0.225,-0.066 0.255,-0.066C0.286,-0.065 0.314,-0.073 0.339,-0.088C0.364,-0.102 0.386,-0.123 0.403,-0.148C0.42,-0.172 0.431,-0.2 0.436,-0.23C0.44,-0.259 0.438,-0.285 0.429,-0.31C0.42,-0.335 0.406,-0.355 0.386,-0.371C0.366,-0.386 0.341,-0.394 0.311,-0.395C0.281,-0.395 0.253,-0.388 0.228,-0.373C0.202,-0.358 0.181,-0.338 0.164,-0.313C0.147,-0.288 0.136,-0.26 0.131,-0.23Z" style="fill:white;fill-rule:nonzero;"/>
        </g>
        <g transform="matrix(24,0,0,24,286.773,85.9368)">
            <path d="M0.324,-0.373C0.315,-0.38 0.306,-0.385 0.298,-0.389C0.289,-0.393 0.279,-0.395 0.268,-0.395C0.24,-0.396 0.219,-0.386 0.205,-0.365C0.191,-0.343 0.181,-0.32 0.174,-0.294L0.124,-0L0.044,-0L0.124,-0.46L0.203,-0.46L0.195,-0.414C0.209,-0.431 0.225,-0.444 0.242,-0.454C0.259,-0.464 0.277,-0.469 0.296,-0.47C0.326,-0.47 0.353,-0.459 0.377,-0.437L0.324,-0.373Z" style="fill:white;fill-rule:nonzero;"/>
        </g>
    </g>
</svg>
